<svg aria-hidden="true" style="position: absolute; width: 0; height: 0; overflow: hidden;" version="1.1" xmlns="http://www.w3.org/2000/svg" xmlns:xlink="http://www.w3.org/1999/xlink">
<defs>
<symbol id="icon-film" viewBox="0 0 32 32">
<path d="M0 4v24h32v-24h-32zM6 26h-4v-4h4v4zM6 18h-4v-4h4v4zM6 10h-4v-4h4v4zM24 26h-16v-20h16v20zM30 26h-4v-4h4v4zM30 18h-4v-4h4v4zM30 10h-4v-4h4v4zM12 10v12l8-6z"></path>
</symbol>

<symbol id='icon-search' xmlns="http://www.w3.org/2000/svg" width="14" height="14" viewBox="0 0 14 14" fill="none">
  <path d="M6.41667 11.0833C8.994 11.0833 11.0833 8.994 11.0833 6.41667C11.0833 3.83934 8.994 1.75 6.41667 1.75C3.83934 1.75 1.75 3.83934 1.75 6.41667C1.75 8.994 3.83934 11.0833 6.41667 11.0833Z" stroke="black" stroke-linecap="round" stroke-linejoin="round"/>
  <path d="M12.2494 12.2499L9.71191 9.7124" stroke="black" stroke-linecap="round" stroke-linejoin="round"/>
</symbol>
</defs>
</svg>
